<?xml version="1.0"?><svg xmlns="http://www.w3.org/2000/svg"  viewBox="0 0 100 100" width="400px" height="400px">    <path d="M 17.265625 15.960938 C 13.259625 15.960937 10 19.275609 10 23.349609 L 10.09375 78 C 10.09375 81.49907 10.539361 84.736951 13.632812 84.976562 C 13.673138 84.981494 13.708325 85 13.75 85 L 84.917969 85 C 87.168969 85 89 83.168969 89 80.917969 L 89 37 C 89 36.448 88.553 36 88 36 L 84.001953 36 L 84.001953 30.421875 C 84.001953 28.513875 82.447063 26.960938 80.539062 26.960938 L 53.462891 26.960938 C 52.656891 26.960937 52.001953 26.306 52.001953 25.5 L 52.001953 23.195312 C 52.001953 19.206312 48.742328 15.960938 44.736328 15.960938 L 17.265625 15.960938 z M 17.265625 17.960938 L 44.734375 17.960938 C 47.638375 17.960938 50 20.309313 50 23.195312 L 50 25.5 C 50 27.408 51.552937 28.960937 53.460938 28.960938 L 80.539062 28.960938 C 81.345062 28.960937 82.001953 29.615875 82.001953 30.421875 L 82.001953 36 L 16 36 C 15.447 36 15 36.448 15 37 L 15 74.75 L 15.003906 76.039062 C 15.014906 78.983063 15.029328 82.027219 14.236328 82.824219 C 14.151075 82.909472 14.026693 82.982425 13.789062 82.992188 C 13.044543 82.957108 12.09375 82.561495 12.09375 77.998047 L 12 29.824219 L 12 23.349609 C 12 20.378609 14.362625 17.960938 17.265625 17.960938 z M 20.349609 20.960938 C 17.399609 20.960937 15 23.448859 15 26.505859 L 15 31.460938 C 15 31.736937 15.224 31.960938 15.5 31.960938 C 15.776 31.960937 16 31.736937 16 31.460938 L 16 26.505859 C 16 24.000859 17.951609 21.960938 20.349609 21.960938 L 38.5 21.960938 C 38.776 21.960937 39 21.736937 39 21.460938 C 39 21.184938 38.776 20.960938 38.5 20.960938 L 20.349609 20.960938 z M 41.693359 21.001953 C 41.417359 21.001953 41.193359 21.225953 41.193359 21.501953 C 41.193359 21.777953 41.417359 22.001953 41.693359 22.001953 C 44.091359 22.001953 46.042969 24.040875 46.042969 26.546875 C 46.042969 26.822875 46.266969 27.046875 46.542969 27.046875 C 46.818969 27.046875 47.042969 26.822875 47.042969 26.546875 C 47.042969 23.488875 44.642359 21.001953 41.693359 21.001953 z M 17 38 L 87 38 L 87 80.917969 C 87 82.065969 86.065969 83 84.917969 83 L 16.419922 83 C 17.025922 81.426 17.016906 79.04725 17.003906 76.03125 L 17 38 z M 25.5 42 C 25.224 42 25 42.224 25 42.5 L 25 52.5 C 25 52.776 25.224 53 25.5 53 L 49.5 53 C 49.776 53 50 52.776 50 52.5 L 50 42.5 C 50 42.224 49.776 42 49.5 42 L 25.5 42 z M 26 43 L 49 43 L 49 52 L 26 52 L 26 43 z"/></svg>