<?xml version="1.0"?><svg xmlns="http://www.w3.org/2000/svg"  viewBox="0 0 100 100" width="400px" height="400px">    <path d="M 57.751953 15.8125 C 57.390922 15.864484 57.073719 16.114766 56.949219 16.478516 C 55.814219 19.780516 53.674797 21.568875 50.591797 21.796875 C 46.857797 22.067875 44.355734 20.336234 42.927734 16.490234 C 42.751734 16.014234 42.249906 15.744234 41.753906 15.865234 C 38.053906 16.770234 34.589937 18.223641 31.460938 20.181641 C 31.030938 20.449641 30.869891 20.997078 31.087891 21.455078 C 32.704891 24.871078 32.337891 27.707094 29.962891 30.121094 C 27.555891 32.569094 24.703281 32.981719 21.238281 31.386719 C 20.777281 31.172719 20.230797 31.342391 19.966797 31.775391 C 18.017797 34.982391 16.607391 38.456609 15.775391 42.099609 C 15.663391 42.589609 15.931297 43.086766 16.404297 43.259766 C 19.868297 44.529766 21.591922 46.748063 21.669922 50.039062 C 21.751922 53.467062 20.059047 55.806406 16.498047 57.191406 C 16.032047 57.373406 15.772625 57.871422 15.890625 58.357422 C 16.764625 61.961422 18.216984 65.401984 20.208984 68.583984 C 20.474984 69.007984 21.010844 69.167797 21.464844 68.966797 C 24.818844 67.473797 27.596031 67.865109 29.957031 70.162109 C 32.376031 72.515109 32.831656 75.317562 31.347656 78.726562 C 31.147656 79.185562 31.317141 79.720469 31.744141 79.980469 C 34.944141 81.925469 38.403344 83.336828 42.027344 84.173828 C 42.089344 84.187828 42.152844 84.193359 42.214844 84.193359 C 42.610844 84.193359 43.009547 83.926266 43.185547 83.572266 C 43.237547 83.474266 43.276734 83.394266 43.302734 83.322266 C 44.444734 80.345266 46.978016 78.472547 49.916016 78.435547 C 49.951016 78.434547 49.985531 78.435547 50.019531 78.435547 C 53.119531 78.435547 55.672328 80.191391 56.861328 83.150391 C 57.085328 83.704391 57.586875 84.306297 58.671875 84.029297 C 61.966875 83.196297 65.114297 81.894203 68.029297 80.158203 C 68.153297 80.084203 68.274812 80.003687 68.382812 79.929688 L 68.492188 79.855469 C 68.900187 79.587469 69.055422 79.061234 68.857422 78.615234 C 67.477422 75.504234 67.752219 72.887187 69.699219 70.617188 C 72.079219 67.843187 75.028891 67.258172 78.712891 68.826172 C 79.163891 69.021172 79.694078 68.853594 79.955078 68.433594 C 81.928078 65.243594 83.36275 61.797359 84.21875 58.193359 C 84.33475 57.705359 84.072516 57.208297 83.603516 57.029297 C 80.179516 55.718297 78.481062 53.498141 78.414062 50.244141 C 78.342063 46.817141 80.038656 44.481563 83.597656 43.101562 C 84.017656 42.938562 84.275469 42.515359 84.230469 42.068359 C 83.986469 39.656359 81.286516 33.151438 79.853516 31.523438 C 79.558516 31.189438 79.078688 31.089344 78.679688 31.277344 C 75.299688 32.861344 72.481406 32.472891 70.066406 30.087891 C 67.639406 27.690891 67.237844 24.836375 68.839844 21.359375 C 69.051844 20.899375 68.886078 20.355844 68.455078 20.089844 C 65.238078 18.108844 61.761094 16.675078 58.121094 15.830078 C 57.996094 15.800578 57.872297 15.795172 57.751953 15.8125 z M 58.515625 17.984375 C 61.363625 18.727375 64.101875 19.856609 66.671875 21.349609 C 65.167875 25.232609 65.847156 28.730766 68.660156 31.509766 C 71.469156 34.283766 74.953578 34.935016 78.767578 33.416016 C 79.894578 35.199016 81.617234 39.381734 82.115234 41.552734 C 78.299234 43.288734 76.332016 46.292203 76.416016 50.283203 C 76.495016 54.109203 78.395359 56.885781 82.068359 58.550781 C 81.315359 61.383781 80.179594 64.106016 78.683594 66.666016 C 74.555594 65.189016 70.940594 66.0995 68.183594 69.3125 C 65.926594 71.9445 65.421125 75.146187 66.703125 78.617188 C 64.167125 80.091188 61.445922 81.220187 58.544922 81.992188 C 56.955922 78.455187 53.739531 76.412594 49.894531 76.433594 C 46.324531 76.478594 43.231828 78.595344 41.673828 82.027344 C 38.821828 81.292344 36.082719 80.176219 33.511719 78.699219 C 34.891719 74.884219 34.152516 71.453469 31.353516 68.730469 C 28.618516 66.070469 25.21475 65.411641 21.46875 66.806641 C 19.95875 64.255641 18.810922 61.537031 18.044922 58.707031 C 21.823922 56.962031 23.763922 53.965187 23.669922 49.992188 C 23.578922 46.180188 21.598781 43.333797 17.925781 41.716797 C 18.656781 38.861797 19.767281 36.123641 21.238281 33.556641 C 25.111281 35.049641 28.606625 34.354438 31.390625 31.523438 C 34.142625 28.725437 34.778813 25.250688 33.257812 21.429688 C 35.769812 19.951688 38.500531 18.807437 41.394531 18.023438 C 43.204531 22.118437 46.424234 24.119016 50.740234 23.791016 C 54.358234 23.525016 57.030625 21.522375 58.515625 17.984375 z M 48.853516 27.921875 C 48.171766 27.951625 47.493313 28.012969 46.820312 28.105469 C 46.548313 28.143469 46.359484 28.393062 46.396484 28.664062 C 46.430484 28.912063 46.642719 29.09375 46.886719 29.09375 C 46.909719 29.09375 46.931078 29.092844 46.955078 29.089844 C 48.240078 28.914844 49.553516 28.856922 50.853516 28.919922 C 51.165516 28.954922 51.360047 28.719266 51.373047 28.447266 C 51.386047 28.172266 51.175344 27.940734 50.902344 27.927734 C 50.220344 27.894234 49.535266 27.892125 48.853516 27.921875 z M 44.753906 28.597656 C 44.689906 28.587937 44.622438 28.590672 44.554688 28.607422 C 37.408687 30.425422 31.650297 35.660375 29.154297 42.609375 C 29.061297 42.867375 29.195125 43.151141 29.453125 43.244141 C 29.509125 43.263141 29.565094 43.273438 29.621094 43.273438 C 29.824094 43.273438 30.016844 43.147313 30.089844 42.945312 C 30.828507 40.889133 31.867415 38.992463 33.150391 37.298828 L 35.238281 40.392578 C 35.095359 40.610957 34.940808 40.819144 34.806641 41.044922 C 32.391641 45.108922 31.705094 49.870172 32.871094 54.451172 C 33.140623 55.510334 33.510808 56.525548 33.957031 57.498047 L 30.277344 57.6875 C 29.974191 56.916237 29.712913 56.123909 29.505859 55.308594 C 29.438859 55.044594 29.173344 54.880219 28.902344 54.949219 C 28.637344 55.017219 28.477922 55.286734 28.544922 55.552734 C 29.271409 58.413206 30.581124 61.027322 32.355469 63.292969 C 32.373306 63.321415 32.395239 63.345296 32.417969 63.369141 C 35.204857 66.893748 39.126189 69.562287 43.783203 70.945312 C 45.783063 71.539938 47.796529 71.849273 49.785156 71.914062 C 49.791101 71.914273 49.796787 71.917969 49.802734 71.917969 C 49.806915 71.917969 49.81028 71.914167 49.814453 71.914062 C 50.053402 71.921542 50.293162 71.941406 50.53125 71.941406 C 55.95625 71.941406 61.126141 70.001266 65.119141 66.322266 C 65.321141 66.136266 65.334438 65.822094 65.148438 65.621094 C 64.962438 65.419094 64.647266 65.405797 64.447266 65.591797 C 62.349293 67.524993 59.906981 68.948227 57.271484 69.841797 L 57.560547 66.242188 C 57.564626 66.193772 57.554287 66.148818 57.544922 66.103516 C 60.731302 64.615141 63.400478 62.215591 65.236328 59.126953 C 67.651328 55.062953 68.340828 50.301703 67.173828 45.720703 C 66.923949 44.738761 66.579832 43.798628 66.177734 42.890625 L 69.785156 42.501953 C 70.078912 43.269137 70.333428 44.05549 70.539062 44.863281 C 70.595062 45.088281 70.797531 45.236328 71.019531 45.236328 C 71.059531 45.236328 71.099625 45.232656 71.140625 45.222656 C 71.405625 45.154656 71.565047 44.885141 71.498047 44.619141 C 69.659047 37.392141 64.354734 31.608438 57.302734 29.148438 C 57.046734 29.058438 56.759922 29.195078 56.669922 29.455078 C 56.579922 29.714078 56.717562 29.996891 56.976562 30.087891 C 59.003438 30.794709 60.874369 31.792461 62.554688 33.025391 L 57.767578 34.183594 C 54.00624 32.344166 49.759255 31.890087 45.65625 32.935547 C 44.61735 33.19992 43.623651 33.563622 42.667969 33.998047 L 42.277344 30.382812 C 43.094343 30.06213 43.935792 29.787975 44.798828 29.568359 C 45.063828 29.500359 45.22325 29.232797 45.15625 28.966797 C 45.106 28.768047 44.945906 28.626812 44.753906 28.597656 z M 41.324219 30.789062 L 41.712891 34.396484 C 41.715526 34.421374 41.7283 34.441344 41.734375 34.464844 C 40.800972 34.957891 39.915844 35.526181 39.089844 36.175781 L 38.035156 32.640625 C 39.069282 31.930161 40.168664 31.309369 41.324219 30.789062 z M 37.185547 33.259766 L 38.259766 36.861328 C 37.370511 37.654011 36.556811 38.537408 35.835938 39.507812 L 33.800781 36.492188 C 34.806889 35.291039 35.942065 34.20849 37.185547 33.259766 z M 50.019531 33.378906 C 57.475531 33.378906 64.289938 38.415844 66.210938 45.964844 C 67.311938 50.288844 66.661812 54.782141 64.382812 58.619141 C 62.103812 62.455141 58.466578 65.173391 54.142578 66.275391 C 49.815578 67.375391 45.324281 66.726266 41.488281 64.447266 C 37.652281 62.168266 34.934031 58.531031 33.832031 54.207031 C 32.731031 49.882031 33.381156 45.388734 35.660156 41.552734 C 37.939156 37.716734 41.576391 34.998484 45.900391 33.896484 C 47.278391 33.545484 48.658531 33.378906 50.019531 33.378906 z M 63.554688 33.806641 C 64.66337 34.727414 65.67552 35.756613 66.572266 36.880859 L 62.664062 37.525391 C 62.613124 37.53388 62.569189 37.556047 62.525391 37.578125 C 61.50184 36.558281 60.358924 35.645867 59.085938 34.886719 L 63.554688 33.806641 z M 67.240234 37.757812 C 68.081828 38.93417 68.796982 40.206668 69.386719 41.546875 L 65.722656 41.943359 C 65.067001 40.673233 64.265633 39.491436 63.326172 38.421875 L 67.158203 37.787109 C 67.187936 37.782154 67.2128 37.767581 67.240234 37.757812 z M 50.078125 43.667969 C 48.363125 43.662969 46.748109 44.298141 45.537109 45.494141 C 44.333109 46.681141 43.666203 48.269844 43.658203 49.964844 C 43.642203 53.459844 46.482234 56.315031 49.990234 56.332031 L 49.994141 56.332031 C 53.455141 56.313031 56.243797 53.613547 56.341797 50.185547 C 56.389797 48.465547 55.760312 46.839516 54.570312 45.603516 C 53.384312 44.370516 51.788125 43.683969 50.078125 43.667969 z M 50.013672 44.667969 L 50.068359 44.667969 C 51.507359 44.681969 52.852562 45.259875 53.851562 46.296875 C 54.853562 47.337875 55.382797 48.70825 55.341797 50.15625 C 55.259797 53.04225 52.907234 55.314031 49.990234 55.332031 C 47.036234 55.317031 44.644203 52.91175 44.658203 49.96875 C 44.665203 48.54175 45.224281 47.205031 46.238281 46.207031 C 47.245281 45.212031 48.584672 44.667969 50.013672 44.667969 z M 71.066406 54.402344 C 70.875813 54.435578 70.717625 54.58025 70.671875 54.78125 C 70.381875 56.04925 69.972078 57.297234 69.455078 58.490234 C 69.346078 58.741234 69.461891 59.034578 69.712891 59.142578 C 69.776891 59.170578 69.844156 59.183594 69.910156 59.183594 C 70.101156 59.183594 70.283234 59.073719 70.365234 58.886719 C 70.906234 57.637719 71.335672 56.330906 71.638672 55.003906 C 71.700672 54.736906 71.533625 54.469203 71.265625 54.408203 C 71.198375 54.392453 71.129937 54.391266 71.066406 54.402344 z M 34.449219 58.464844 C 35.013751 59.518573 35.681544 60.506165 36.445312 61.419922 L 32.958984 62.458984 C 32.064989 61.284335 31.311307 60.010316 30.695312 58.660156 L 34.449219 58.464844 z M 69.087891 59.984375 C 68.896359 59.965578 68.700563 60.059484 68.601562 60.240234 C 68.163562 61.042234 67.672578 61.821734 67.142578 62.552734 C 66.982578 62.774734 67.031906 63.083141 67.253906 63.244141 C 67.341906 63.308141 67.442922 63.339844 67.544922 63.339844 C 67.697922 63.339844 67.848266 63.267766 67.947266 63.134766 C 68.500266 62.367766 69.014656 61.554844 69.472656 60.714844 C 69.603656 60.474844 69.514437 60.174969 69.273438 60.042969 C 69.214438 60.010969 69.151734 59.990641 69.087891 59.984375 z M 37.164062 62.240234 C 38.138105 63.267874 39.24497 64.175173 40.462891 64.957031 L 37.226562 66.619141 C 35.891771 65.643849 34.686782 64.530381 33.636719 63.292969 L 37.164062 62.240234 z M 41.423828 65.544922 C 42.712905 66.262287 44.064809 66.815591 45.457031 67.189453 L 43.037109 69.503906 C 42.999452 69.539672 42.974993 69.581915 42.951172 69.625 C 41.226416 69.017039 39.620466 68.218614 38.152344 67.259766 L 41.300781 65.642578 C 41.349336 65.617704 41.38757 65.581828 41.423828 65.544922 z M 56.542969 66.523438 L 56.25 70.164062 C 54.440304 70.673588 52.549776 70.931098 50.625 70.939453 L 52.335938 67.753906 C 52.358423 67.711898 52.365512 67.667477 52.375 67.623047 C 53.047384 67.531513 53.719523 67.406335 54.386719 67.236328 C 55.12802 67.047686 55.842832 66.799601 56.542969 66.523438 z M 46.539062 67.445312 C 47.674028 67.673949 48.828519 67.791016 49.990234 67.791016 C 50.397472 67.791016 50.806683 67.772529 51.214844 67.744141 L 49.507812 70.919922 C 47.7045 70.835531 45.878677 70.530964 44.066406 69.992188 C 44.039977 69.984336 44.014662 69.974734 43.988281 69.966797 L 46.419922 67.640625 C 46.479007 67.584509 46.514058 67.517159 46.539062 67.445312 z"/></svg>